<?xml version="1.0" encoding="UTF-8" standalone="no"?><!DOCTYPE svg PUBLIC "-//W3C//DTD SVG 1.1//EN" "http://www.w3.org/Graphics/SVG/1.1/DTD/svg11.dtd"><svg width="100%" height="100%" viewBox="0 0 1028 823" version="1.1" xmlns="http://www.w3.org/2000/svg" xmlns:xlink="http://www.w3.org/1999/xlink" xml:space="preserve" xmlns:serif="http://www.serif.com/" style="fill-rule:evenodd;clip-rule:evenodd;stroke-linecap:square;stroke-linejoin:round;stroke-miterlimit:1.5;"><path d="M188.086,630.518l833.333,0" style="fill:none;stroke:#000;stroke-width:8.33px;"/><path d="M188.086,630.518l-0,-624.625" style="fill:none;stroke:#000;stroke-width:8.33px;"/><path d="M396.419,630.519l0,41.666" style="fill:none;stroke:#000;stroke-width:4.17px;stroke-linecap:round;"/><path d="M604.753,630.52l-0,41.665" style="fill:none;stroke:#000;stroke-width:4.17px;stroke-linecap:round;"/><path d="M813.086,630.518l-0,41.665" style="fill:none;stroke:#000;stroke-width:4.17px;stroke-linecap:round;"/><path d="M344.259,709.929l-0,-3.369c3.173,-0.309 5.387,-0.826 6.64,-1.55c1.254,-0.725 2.189,-2.438 2.808,-5.14l3.467,0l-0,34.815l-4.688,-0l0,-24.756l-8.227,0Z" style="fill-rule:nonzero;"/><path d="M380.806,699.724c4.525,-0 7.797,1.864 9.815,5.591c1.562,2.881 2.344,6.828 2.344,11.841c-0,4.752 -0.708,8.683 -2.124,11.792c-2.051,4.459 -5.404,6.689 -10.059,6.689c-4.199,0 -7.324,-1.823 -9.375,-5.469c-1.709,-3.043 -2.563,-7.129 -2.563,-12.256c-0,-3.971 0.512,-7.381 1.538,-10.229c1.92,-5.306 5.395,-7.959 10.424,-7.959Zm-0.048,31.909c2.278,0 4.093,-1.009 5.444,-3.027c1.351,-2.018 2.026,-5.778 2.026,-11.28c0,-3.971 -0.488,-7.238 -1.464,-9.802c-0.977,-2.563 -2.873,-3.845 -5.689,-3.845c-2.588,0 -4.48,1.217 -5.676,3.65c-1.197,2.433 -1.795,6.018 -1.795,10.754c0,3.565 0.383,6.429 1.148,8.594c1.172,3.304 3.174,4.956 6.006,4.956Z" style="fill-rule:nonzero;"/><path d="M408.614,699.724c4.525,-0 7.796,1.864 9.815,5.591c1.562,2.881 2.343,6.828 2.343,11.841c0,4.752 -0.708,8.683 -2.124,11.792c-2.051,4.459 -5.403,6.689 -10.058,6.689c-4.2,0 -7.325,-1.823 -9.375,-5.469c-1.709,-3.043 -2.564,-7.129 -2.564,-12.256c0,-3.971 0.513,-7.381 1.538,-10.229c1.921,-5.306 5.396,-7.959 10.425,-7.959Zm-0.049,31.909c2.279,0 4.094,-1.009 5.445,-3.027c1.351,-2.018 2.026,-5.778 2.026,-11.28c-0,-3.971 -0.488,-7.238 -1.465,-9.802c-0.976,-2.563 -2.873,-3.845 -5.688,-3.845c-2.588,0 -4.48,1.217 -5.677,3.65c-1.196,2.433 -1.794,6.018 -1.794,10.754c-0,3.565 0.382,6.429 1.147,8.594c1.172,3.304 3.174,4.956 6.006,4.956Z" style="fill-rule:nonzero;"/><path d="M436.422,699.724c4.524,-0 7.796,1.864 9.814,5.591c1.563,2.881 2.344,6.828 2.344,11.841c-0,4.752 -0.708,8.683 -2.124,11.792c-2.051,4.459 -5.404,6.689 -10.059,6.689c-4.199,0 -7.324,-1.823 -9.375,-5.469c-1.709,-3.043 -2.563,-7.129 -2.563,-12.256c-0,-3.971 0.513,-7.381 1.538,-10.229c1.92,-5.306 5.395,-7.959 10.425,-7.959Zm-0.049,31.909c2.279,0 4.093,-1.009 5.444,-3.027c1.351,-2.018 2.027,-5.778 2.027,-11.28c-0,-3.971 -0.489,-7.238 -1.465,-9.802c-0.977,-2.563 -2.873,-3.845 -5.689,-3.845c-2.588,0 -4.48,1.217 -5.676,3.65c-1.196,2.433 -1.794,6.018 -1.794,10.754c-0,3.565 0.382,6.429 1.147,8.594c1.172,3.304 3.174,4.956 6.006,4.956Z" style="fill-rule:nonzero;"/><path d="M76.88,622.767l-0,-3.369c3.174,-0.31 5.387,-0.826 6.641,-1.551c1.253,-0.724 2.189,-2.437 2.807,-5.139l3.467,0l-0,34.815l-4.688,-0l0,-24.756l-8.227,-0Z" style="fill-rule:nonzero;"/><path d="M113.428,612.562c4.524,-0 7.796,1.863 9.814,5.59c1.563,2.881 2.344,6.828 2.344,11.841c-0,4.753 -0.708,8.684 -2.124,11.792c-2.051,4.46 -5.404,6.69 -10.059,6.69c-4.199,-0 -7.324,-1.823 -9.375,-5.469c-1.709,-3.044 -2.563,-7.129 -2.563,-12.256c-0,-3.971 0.513,-7.381 1.538,-10.229c1.921,-5.306 5.395,-7.959 10.425,-7.959Zm-0.049,31.909c2.279,-0 4.093,-1.009 5.444,-3.027c1.351,-2.019 2.027,-5.778 2.027,-11.28c-0,-3.971 -0.489,-7.239 -1.465,-9.802c-0.977,-2.564 -2.873,-3.845 -5.689,-3.845c-2.588,-0 -4.48,1.216 -5.676,3.65c-1.196,2.433 -1.794,6.018 -1.794,10.754c-0,3.564 0.382,6.429 1.147,8.594c1.172,3.304 3.174,4.956 6.006,4.956Z" style="fill-rule:nonzero;"/><path d="M74.314,442.066c0.162,-3.011 0.785,-5.631 1.867,-7.861c1.083,-2.23 3.195,-4.256 6.336,-6.079l4.687,-2.71c2.1,-1.221 3.573,-2.263 4.419,-3.125c1.335,-1.351 2.002,-2.897 2.002,-4.639c0,-2.035 -0.61,-3.65 -1.831,-4.846c-1.221,-1.196 -2.848,-1.795 -4.883,-1.795c-3.011,0 -5.094,1.14 -6.25,3.418c-0.618,1.221 -0.96,2.914 -1.025,5.078l-4.468,0c0.049,-3.043 0.611,-5.525 1.685,-7.446c1.904,-3.385 5.265,-5.078 10.083,-5.078c4.004,0 6.929,1.082 8.777,3.247c1.847,2.165 2.771,4.574 2.771,7.227c-0,2.799 -0.985,5.192 -2.954,7.177c-1.14,1.156 -3.182,2.556 -6.128,4.2l-3.345,1.855c-1.595,0.879 -2.848,1.717 -3.76,2.515c-1.628,1.416 -2.653,2.986 -3.076,4.712l19.092,-0l-0,4.15l-23.999,0Z" style="fill-rule:nonzero;"/><path d="M114.084,407.105c4.525,0 7.796,1.864 9.815,5.591c1.562,2.881 2.343,6.828 2.343,11.841c0,4.752 -0.708,8.683 -2.124,11.792c-2.05,4.459 -5.403,6.689 -10.058,6.689c-4.199,0 -7.324,-1.823 -9.375,-5.469c-1.709,-3.043 -2.564,-7.128 -2.564,-12.255c0,-3.972 0.513,-7.382 1.538,-10.23c1.921,-5.306 5.396,-7.959 10.425,-7.959Zm-0.049,31.909c2.279,0 4.094,-1.009 5.445,-3.027c1.351,-2.018 2.026,-5.778 2.026,-11.279c0,-3.972 -0.488,-7.239 -1.465,-9.803c-0.976,-2.563 -2.872,-3.845 -5.688,-3.845c-2.588,0 -4.48,1.217 -5.677,3.65c-1.196,2.433 -1.794,6.018 -1.794,10.755c0,3.564 0.383,6.429 1.148,8.593c1.171,3.304 3.173,4.956 6.005,4.956Z" style="fill-rule:nonzero;"/><path d="M85.083,228.98c-4.134,0 -7.133,-1.135 -8.997,-3.406c-1.863,-2.27 -2.795,-5.033 -2.795,-8.288l4.59,-0c0.195,2.262 0.618,3.906 1.269,4.931c1.14,1.84 3.199,2.759 6.177,2.759c2.311,0 4.167,-0.618 5.567,-1.855c1.399,-1.237 2.099,-2.832 2.099,-4.785c0,-2.409 -0.736,-4.094 -2.209,-5.054c-1.473,-0.96 -3.52,-1.441 -6.14,-1.441c-0.293,0 -0.59,0.005 -0.892,0.013c-0.301,0.008 -0.606,0.02 -0.915,0.036l-0,-3.882c0.456,0.049 0.838,0.082 1.147,0.098c0.31,0.016 0.643,0.025 1.001,0.025c1.644,-0 2.995,-0.261 4.053,-0.782c1.856,-0.911 2.783,-2.539 2.783,-4.883c0,-1.741 -0.618,-3.084 -1.855,-4.028c-1.237,-0.944 -2.678,-1.416 -4.321,-1.416c-2.93,0 -4.957,0.977 -6.08,2.93c-0.618,1.074 -0.968,2.604 -1.049,4.59l-4.346,-0c-0,-2.605 0.521,-4.818 1.562,-6.641c1.791,-3.255 4.94,-4.883 9.449,-4.883c3.564,0 6.323,0.794 8.276,2.381c1.953,1.586 2.93,3.885 2.93,6.897c-0,2.148 -0.578,3.89 -1.734,5.224c-0.716,0.83 -1.644,1.481 -2.783,1.953c1.839,0.505 3.276,1.477 4.309,2.918c1.034,1.44 1.55,3.202 1.55,5.285c0,3.337 -1.098,6.055 -3.295,8.155c-2.198,2.099 -5.315,3.149 -9.351,3.149Z" style="fill-rule:nonzero;"/><path d="M113.428,193.067c4.524,0 7.796,1.864 9.814,5.591c1.563,2.881 2.344,6.828 2.344,11.841c-0,4.752 -0.708,8.683 -2.124,11.792c-2.051,4.459 -5.404,6.689 -10.059,6.689c-4.199,0 -7.324,-1.823 -9.375,-5.469c-1.709,-3.043 -2.563,-7.129 -2.563,-12.255c-0,-3.972 0.513,-7.382 1.538,-10.23c1.921,-5.306 5.395,-7.959 10.425,-7.959Zm-0.049,31.909c2.279,0 4.093,-1.009 5.444,-3.027c1.351,-2.018 2.027,-5.778 2.027,-11.279c-0,-3.972 -0.489,-7.239 -1.465,-9.803c-0.977,-2.563 -2.873,-3.845 -5.689,-3.845c-2.588,0 -4.48,1.217 -5.676,3.65c-1.196,2.433 -1.794,6.018 -1.794,10.754c-0,3.565 0.382,6.429 1.147,8.594c1.172,3.304 3.174,4.956 6.006,4.956Z" style="fill-rule:nonzero;"/><path d="M550.981,733.983c0.162,-3.011 0.785,-5.631 1.867,-7.861c1.083,-2.23 3.194,-4.256 6.336,-6.079l4.687,-2.71c2.1,-1.221 3.573,-2.263 4.419,-3.125c1.335,-1.351 2.002,-2.897 2.002,-4.639c0,-2.035 -0.61,-3.65 -1.831,-4.846c-1.221,-1.197 -2.848,-1.795 -4.883,-1.795c-3.011,0 -5.094,1.14 -6.25,3.418c-0.618,1.221 -0.96,2.914 -1.025,5.078l-4.468,0c0.049,-3.043 0.61,-5.525 1.685,-7.446c1.904,-3.385 5.265,-5.078 10.083,-5.078c4.004,0 6.929,1.082 8.777,3.247c1.847,2.165 2.771,4.574 2.771,7.227c-0,2.799 -0.985,5.192 -2.955,7.177c-1.139,1.156 -3.182,2.556 -6.127,4.2l-3.345,1.855c-1.595,0.879 -2.849,1.717 -3.76,2.515c-1.628,1.416 -2.653,2.986 -3.076,4.712l19.092,-0l-0,4.15l-23.999,0Z" style="fill-rule:nonzero;"/><path d="M590.751,699.022c4.525,0 7.796,1.864 9.815,5.591c1.562,2.881 2.343,6.828 2.343,11.841c0,4.752 -0.708,8.683 -2.124,11.792c-2.05,4.459 -5.403,6.689 -10.058,6.689c-4.199,0 -7.324,-1.823 -9.375,-5.469c-1.709,-3.043 -2.564,-7.128 -2.564,-12.255c0,-3.972 0.513,-7.382 1.538,-10.23c1.921,-5.306 5.396,-7.959 10.425,-7.959Zm-0.049,31.909c2.279,0 4.094,-1.009 5.445,-3.027c1.351,-2.018 2.026,-5.778 2.026,-11.279c0,-3.972 -0.488,-7.239 -1.465,-9.803c-0.976,-2.563 -2.873,-3.845 -5.688,-3.845c-2.588,0 -4.48,1.217 -5.677,3.65c-1.196,2.433 -1.794,6.018 -1.794,10.754c-0,3.565 0.382,6.43 1.147,8.594c1.172,3.304 3.174,4.956 6.006,4.956Z" style="fill-rule:nonzero;"/><path d="M618.559,699.022c4.524,0 7.796,1.864 9.814,5.591c1.563,2.881 2.344,6.828 2.344,11.841c-0,4.752 -0.708,8.683 -2.124,11.792c-2.051,4.459 -5.404,6.689 -10.059,6.689c-4.199,0 -7.324,-1.823 -9.375,-5.469c-1.709,-3.043 -2.563,-7.128 -2.563,-12.255c-0,-3.972 0.513,-7.382 1.538,-10.23c1.921,-5.306 5.395,-7.959 10.425,-7.959Zm-0.049,31.909c2.279,0 4.093,-1.009 5.444,-3.027c1.351,-2.018 2.027,-5.778 2.027,-11.279c-0,-3.972 -0.489,-7.239 -1.465,-9.803c-0.977,-2.563 -2.873,-3.845 -5.689,-3.845c-2.588,0 -4.48,1.217 -5.676,3.65c-1.196,2.433 -1.794,6.018 -1.794,10.754c-0,3.565 0.382,6.43 1.147,8.594c1.172,3.304 3.174,4.956 6.006,4.956Z" style="fill-rule:nonzero;"/><path d="M646.366,699.022c4.525,0 7.797,1.864 9.815,5.591c1.562,2.881 2.344,6.828 2.344,11.841c-0,4.752 -0.708,8.683 -2.124,11.792c-2.051,4.459 -5.404,6.689 -10.059,6.689c-4.199,0 -7.324,-1.823 -9.375,-5.469c-1.709,-3.043 -2.564,-7.128 -2.564,-12.255c0,-3.972 0.513,-7.382 1.539,-10.23c1.92,-5.306 5.395,-7.959 10.424,-7.959Zm-0.048,31.909c2.278,0 4.093,-1.009 5.444,-3.027c1.351,-2.018 2.026,-5.778 2.026,-11.279c0,-3.972 -0.488,-7.239 -1.465,-9.803c-0.976,-2.563 -2.872,-3.845 -5.688,-3.845c-2.588,0 -4.48,1.217 -5.676,3.65c-1.197,2.433 -1.795,6.018 -1.795,10.754c0,3.565 0.383,6.43 1.148,8.594c1.172,3.304 3.174,4.956 6.006,4.956Z" style="fill-rule:nonzero;"/><path d="M770.923,734.685c-4.134,-0 -7.133,-1.135 -8.997,-3.406c-1.863,-2.27 -2.795,-5.033 -2.795,-8.288l4.59,-0c0.195,2.262 0.618,3.906 1.269,4.931c1.14,1.839 3.198,2.759 6.177,2.759c2.311,-0 4.167,-0.619 5.566,-1.855c1.4,-1.237 2.1,-2.833 2.1,-4.786c0,-2.409 -0.736,-4.093 -2.209,-5.053c-1.473,-0.961 -3.52,-1.441 -6.141,-1.441c-0.293,0 -0.59,0.004 -0.891,0.012c-0.301,0.009 -0.606,0.021 -0.915,0.037l-0,-3.882c0.455,0.049 0.838,0.082 1.147,0.098c0.309,0.016 0.643,0.024 1.001,0.024c1.644,0 2.995,-0.26 4.053,-0.781c1.855,-0.911 2.783,-2.539 2.783,-4.883c0,-1.741 -0.618,-3.084 -1.855,-4.028c-1.237,-0.944 -2.678,-1.416 -4.322,-1.416c-2.929,-0 -4.956,0.976 -6.079,2.93c-0.618,1.074 -0.968,2.604 -1.05,4.589l-4.345,0c-0,-2.604 0.521,-4.817 1.562,-6.64c1.791,-3.255 4.94,-4.883 9.449,-4.883c3.564,-0 6.323,0.793 8.276,2.38c1.953,1.587 2.93,3.886 2.93,6.897c-0,2.149 -0.578,3.89 -1.734,5.225c-0.716,0.83 -1.644,1.481 -2.783,1.953c1.839,0.505 3.276,1.477 4.309,2.918c1.034,1.44 1.55,3.202 1.55,5.285c0,3.337 -1.098,6.055 -3.296,8.154c-2.197,2.1 -5.314,3.15 -9.35,3.15Z" style="fill-rule:nonzero;"/><path d="M799.268,698.772c4.524,-0 7.796,1.863 9.814,5.591c1.563,2.88 2.344,6.827 2.344,11.84c-0,4.753 -0.708,8.684 -2.124,11.792c-2.051,4.46 -5.404,6.69 -10.059,6.69c-4.199,-0 -7.324,-1.823 -9.375,-5.469c-1.709,-3.043 -2.563,-7.129 -2.563,-12.256c-0,-3.971 0.512,-7.381 1.538,-10.229c1.92,-5.306 5.395,-7.959 10.425,-7.959Zm-0.049,31.909c2.278,-0 4.093,-1.009 5.444,-3.027c1.351,-2.019 2.026,-5.778 2.026,-11.28c0,-3.971 -0.488,-7.238 -1.464,-9.802c-0.977,-2.563 -2.873,-3.845 -5.689,-3.845c-2.588,-0 -4.48,1.217 -5.676,3.65c-1.196,2.433 -1.795,6.018 -1.795,10.754c0,3.565 0.383,6.429 1.148,8.594c1.172,3.304 3.174,4.956 6.006,4.956Z" style="fill-rule:nonzero;"/><path d="M827.075,698.772c4.525,-0 7.796,1.863 9.815,5.591c1.562,2.88 2.343,6.827 2.343,11.84c0,4.753 -0.708,8.684 -2.124,11.792c-2.05,4.46 -5.403,6.69 -10.058,6.69c-4.199,-0 -7.324,-1.823 -9.375,-5.469c-1.709,-3.043 -2.564,-7.129 -2.564,-12.256c0,-3.971 0.513,-7.381 1.538,-10.229c1.921,-5.306 5.396,-7.959 10.425,-7.959Zm-0.049,31.909c2.279,-0 4.094,-1.009 5.445,-3.027c1.351,-2.019 2.026,-5.778 2.026,-11.28c0,-3.971 -0.488,-7.238 -1.465,-9.802c-0.976,-2.563 -2.872,-3.845 -5.688,-3.845c-2.588,-0 -4.48,1.217 -5.677,3.65c-1.196,2.433 -1.794,6.018 -1.794,10.754c0,3.565 0.383,6.429 1.148,8.594c1.171,3.304 3.173,4.956 6.005,4.956Z" style="fill-rule:nonzero;"/><path d="M854.883,698.772c4.525,-0 7.796,1.863 9.814,5.591c1.563,2.88 2.344,6.827 2.344,11.84c0,4.753 -0.708,8.684 -2.124,11.792c-2.051,4.46 -5.404,6.69 -10.059,6.69c-4.199,-0 -7.324,-1.823 -9.375,-5.469c-1.709,-3.043 -2.563,-7.129 -2.563,-12.256c-0,-3.971 0.513,-7.381 1.538,-10.229c1.921,-5.306 5.396,-7.959 10.425,-7.959Zm-0.049,31.909c2.279,-0 4.093,-1.009 5.444,-3.027c1.351,-2.019 2.027,-5.778 2.027,-11.28c-0,-3.971 -0.489,-7.238 -1.465,-9.802c-0.977,-2.563 -2.873,-3.845 -5.689,-3.845c-2.588,-0 -4.48,1.217 -5.676,3.65c-1.196,2.433 -1.794,6.018 -1.794,10.754c-0,3.565 0.382,6.429 1.147,8.594c1.172,3.304 3.174,4.956 6.006,4.956Z" style="fill-rule:nonzero;"/><path d="M188.086,630.518l-41.667,0" style="fill:none;stroke:#000;stroke-width:4.17px;stroke-linecap:round;"/><path d="M188.086,422.559l-41.667,0" style="fill:none;stroke:#000;stroke-width:4.17px;stroke-linecap:round;"/><path d="M188.086,213.852l-41.667,-0" style="fill:none;stroke:#000;stroke-width:4.17px;stroke-linecap:round;"/><path d="M188.086,422.559l208.333,0l416.667,-208.707l208.333,-0" style="fill:none;stroke:#000;stroke-width:4.17px;stroke-linecap:round;"/><path d="M451.316,812.167l-13.868,-35.791l5.127,-0l9.302,26.001c0.749,2.083 1.375,4.036 1.88,5.859c0.553,-1.953 1.196,-3.906 1.929,-5.859l9.668,-26.001l4.834,-0l-14.014,35.791l-4.858,-0Z" style="fill-rule:nonzero;"/><path d="M472.995,781.43l0,-5.054l4.395,-0l-0,5.054l-4.395,-0Zm0,30.737l0,-25.928l4.395,0l-0,25.928l-4.395,-0Z" style="fill-rule:nonzero;"/><path d="M501.828,803.817l4.541,0.562c-0.716,2.653 -2.042,4.712 -3.979,6.177c-1.937,1.464 -4.411,2.197 -7.422,2.197c-3.792,-0 -6.799,-1.168 -9.021,-3.504c-2.222,-2.335 -3.333,-5.611 -3.333,-9.826c0,-4.362 1.124,-7.748 3.37,-10.156c2.246,-2.409 5.159,-3.614 8.74,-3.614c3.467,0 6.299,1.18 8.496,3.54c2.197,2.36 3.296,5.681 3.296,9.961c-0,0.261 -0.008,0.651 -0.025,1.172l-19.336,0c0.163,2.848 0.969,5.029 2.417,6.543c1.449,1.514 3.256,2.271 5.42,2.271c1.612,-0 2.987,-0.424 4.126,-1.27c1.14,-0.846 2.043,-2.197 2.71,-4.053Zm-14.428,-7.104l14.477,-0c-0.195,-2.181 -0.749,-3.817 -1.66,-4.907c-1.4,-1.693 -3.215,-2.539 -5.444,-2.539c-2.019,-0 -3.715,0.675 -5.091,2.026c-1.375,1.351 -2.136,3.158 -2.282,5.42Z" style="fill-rule:nonzero;"/><path d="M516.672,812.167l-7.934,-25.928l4.541,0l4.126,14.966l1.538,5.566c0.065,-0.276 0.512,-2.058 1.342,-5.346l4.126,-15.186l4.517,0l3.882,15.039l1.294,4.956l1.489,-5.005l4.443,-14.99l4.273,0l-8.106,25.928l-4.565,-0l-4.126,-15.527l-1.001,-4.419l-5.249,19.946l-4.59,-0Z" style="fill-rule:nonzero;"/><path d="M547.995,822.103l0,-35.864l4.004,0l0,3.369c0.944,-1.318 2.01,-2.307 3.198,-2.966c1.189,-0.659 2.629,-0.989 4.322,-0.989c2.213,0 4.166,0.57 5.859,1.709c1.693,1.14 2.971,2.747 3.833,4.822c0.863,2.075 1.294,4.35 1.294,6.824c0,2.653 -0.476,5.041 -1.428,7.165c-0.952,2.124 -2.336,3.752 -4.151,4.883c-1.814,1.131 -3.723,1.697 -5.725,1.697c-1.464,-0 -2.779,-0.309 -3.942,-0.928c-1.164,-0.618 -2.12,-1.4 -2.869,-2.344l-0,12.622l-4.395,0Zm3.98,-22.753c-0,3.336 0.675,5.802 2.026,7.397c1.351,1.595 2.987,2.393 4.907,2.393c1.954,-0 3.626,-0.826 5.018,-2.478c1.391,-1.652 2.087,-4.212 2.087,-7.679c-0,-3.304 -0.68,-5.778 -2.039,-7.421c-1.359,-1.644 -2.982,-2.466 -4.87,-2.466c-1.872,-0 -3.528,0.875 -4.969,2.624c-1.44,1.75 -2.16,4.293 -2.16,7.63Z" style="fill-rule:nonzero;"/><path d="M574.167,799.203c0,-4.801 1.335,-8.358 4.004,-10.669c2.23,-1.92 4.948,-2.881 8.154,-2.881c3.565,0 6.478,1.168 8.741,3.504c2.262,2.335 3.393,5.562 3.393,9.68c0,3.336 -0.5,5.961 -1.501,7.873c-1.001,1.913 -2.458,3.398 -4.37,4.456c-1.913,1.058 -4,1.587 -6.263,1.587c-3.629,-0 -6.563,-1.164 -8.801,-3.491c-2.238,-2.328 -3.357,-5.681 -3.357,-10.059Zm4.517,0c-0,3.32 0.724,5.807 2.173,7.459c1.448,1.652 3.271,2.478 5.468,2.478c2.181,-0 3.996,-0.83 5.445,-2.491c1.448,-1.66 2.173,-4.191 2.173,-7.592c-0,-3.207 -0.729,-5.636 -2.185,-7.288c-1.457,-1.652 -3.268,-2.478 -5.433,-2.478c-2.197,-0 -4.02,0.822 -5.468,2.466c-1.449,1.644 -2.173,4.126 -2.173,7.446Z" style="fill-rule:nonzero;"/><path d="M603.562,812.167l-0,-25.928l3.955,0l-0,3.931c1.009,-1.839 1.941,-3.052 2.795,-3.638c0.855,-0.586 1.795,-0.879 2.82,-0.879c1.481,0 2.987,0.472 4.517,1.416l-1.514,4.077c-1.074,-0.634 -2.148,-0.952 -3.223,-0.952c-0.96,0 -1.823,0.289 -2.588,0.867c-0.765,0.578 -1.31,1.379 -1.635,2.405c-0.489,1.562 -0.733,3.271 -0.733,5.127l0,13.574l-4.394,-0Z" style="fill-rule:nonzero;"/><path d="M629.856,808.236l0.634,3.882c-1.237,0.261 -2.343,0.391 -3.32,0.391c-1.595,-0 -2.832,-0.253 -3.711,-0.757c-0.879,-0.505 -1.497,-1.168 -1.855,-1.99c-0.358,-0.822 -0.537,-2.551 -0.537,-5.188l-0,-14.917l-3.223,0l-0,-3.418l3.223,0l-0,-6.421l4.37,-2.636l-0,9.057l4.419,0l-0,3.418l-4.419,0l-0,15.161c-0,1.254 0.077,2.059 0.232,2.417c0.154,0.358 0.407,0.643 0.757,0.855c0.349,0.211 0.85,0.317 1.501,0.317c0.488,0 1.131,-0.057 1.929,-0.171Z" style="fill-rule:nonzero;"/><path d="M654.856,812.167l-9.497,-35.791l4.858,-0l5.444,23.462c0.586,2.458 1.091,4.899 1.514,7.324c0.911,-3.825 1.449,-6.03 1.611,-6.616l6.812,-24.17l5.713,-0l5.127,18.115c1.286,4.492 2.213,8.716 2.783,12.671c0.456,-2.262 1.05,-4.858 1.782,-7.788l5.615,-22.998l4.761,-0l-9.814,35.791l-4.566,-0l-7.544,-27.271c-0.634,-2.278 -1.009,-3.678 -1.123,-4.199c-0.374,1.644 -0.724,3.044 -1.05,4.199l-7.592,27.271l-4.834,-0Z" style="fill-rule:nonzero;"/><path d="M695.261,781.43l-0,-5.054l4.394,-0l0,5.054l-4.394,-0Zm-0,30.737l-0,-25.928l4.394,0l0,25.928l-4.394,-0Z" style="fill-rule:nonzero;"/><path d="M723.166,812.167l0,-3.272c-1.644,2.572 -4.061,3.858 -7.251,3.858c-2.067,-0 -3.967,-0.57 -5.7,-1.709c-1.734,-1.139 -3.077,-2.73 -4.029,-4.773c-0.952,-2.043 -1.428,-4.39 -1.428,-7.043c0,-2.588 0.431,-4.936 1.294,-7.044c0.863,-2.108 2.157,-3.723 3.882,-4.846c1.725,-1.123 3.654,-1.685 5.786,-1.685c1.562,0 2.954,0.33 4.175,0.989c1.22,0.659 2.213,1.518 2.978,2.576l0,-12.842l4.37,-0l0,35.791l-4.077,-0Zm-13.891,-12.939c-0,3.32 0.7,5.802 2.099,7.446c1.4,1.644 3.052,2.466 4.956,2.466c1.921,-0 3.553,-0.786 4.895,-2.356c1.343,-1.571 2.014,-3.968 2.014,-7.19c0,-3.548 -0.683,-6.153 -2.05,-7.813c-1.367,-1.66 -3.052,-2.49 -5.054,-2.49c-1.953,-0 -3.585,0.798 -4.895,2.393c-1.31,1.595 -1.965,4.109 -1.965,7.544Z" style="fill-rule:nonzero;"/><path d="M743.747,808.236l0.635,3.882c-1.237,0.261 -2.344,0.391 -3.32,0.391c-1.595,-0 -2.832,-0.253 -3.711,-0.757c-0.879,-0.505 -1.498,-1.168 -1.856,-1.99c-0.358,-0.822 -0.537,-2.551 -0.537,-5.188l0,-14.917l-3.222,0l-0,-3.418l3.222,0l0,-6.421l4.37,-2.636l0,9.057l4.419,0l0,3.418l-4.419,0l0,15.161c0,1.254 0.078,2.059 0.232,2.417c0.155,0.358 0.407,0.643 0.757,0.855c0.35,0.211 0.851,0.317 1.502,0.317c0.488,0 1.131,-0.057 1.928,-0.171Z" style="fill-rule:nonzero;"/><path d="M748.044,812.167l0,-35.791l4.395,-0l-0,12.842c2.05,-2.377 4.638,-3.565 7.763,-3.565c1.921,0 3.589,0.379 5.005,1.136c1.416,0.756 2.429,1.802 3.04,3.137c0.61,1.334 0.915,3.271 0.915,5.81l0,16.431l-4.394,-0l-0,-16.431c-0,-2.197 -0.476,-3.796 -1.428,-4.797c-0.953,-1.001 -2.299,-1.502 -4.041,-1.502c-1.302,0 -2.527,0.338 -3.674,1.014c-1.148,0.675 -1.966,1.591 -2.454,2.746c-0.488,1.156 -0.732,2.751 -0.732,4.785l-0,14.185l-4.395,-0Z" style="fill-rule:nonzero;"/><path d="M36.401,419.52l-35.791,-0l0,-24.146l4.224,0l-0,19.409l11.084,0l-0,-16.797l4.224,0l-0,16.797l16.259,0l0,4.737Z" style="fill-rule:nonzero;"/><path d="M23.438,391.419c-4.802,0 -8.358,-1.335 -10.669,-4.004c-1.921,-2.23 -2.881,-4.948 -2.881,-8.154c-0,-3.565 1.168,-6.478 3.503,-8.74c2.336,-2.263 5.562,-3.394 9.68,-3.394c3.337,0 5.961,0.501 7.874,1.502c1.912,1.001 3.397,2.457 4.455,4.37c1.058,1.912 1.587,4 1.587,6.262c0,3.629 -1.163,6.563 -3.491,8.801c-2.327,2.238 -5.68,3.357 -10.059,3.357Zm0,-4.517c3.321,0 5.807,-0.724 7.459,-2.172c1.652,-1.449 2.478,-3.272 2.478,-5.469c0,-2.181 -0.83,-3.996 -2.49,-5.444c-1.66,-1.449 -4.191,-2.173 -7.593,-2.173c-3.206,-0 -5.636,0.728 -7.288,2.185c-1.652,1.456 -2.478,3.267 -2.478,5.432c0,2.197 0.822,4.02 2.466,5.469c1.644,1.448 4.126,2.172 7.447,2.172Z" style="fill-rule:nonzero;"/><path d="M36.401,361.976l-25.927,-0l-0,-3.955l3.686,-0c-2.848,-1.905 -4.272,-4.655 -4.272,-8.252c-0,-1.563 0.28,-2.999 0.842,-4.309c0.562,-1.311 1.298,-2.291 2.209,-2.942c0.912,-0.651 1.994,-1.107 3.248,-1.367c0.813,-0.163 2.237,-0.245 4.272,-0.245l15.942,0l0,4.395l-15.771,-0c-1.79,-0 -3.129,0.171 -4.016,0.513c-0.887,0.341 -1.595,0.948 -2.124,1.818c-0.529,0.871 -0.794,1.893 -0.794,3.064c0,1.872 0.594,3.488 1.783,4.847c1.188,1.359 3.442,2.038 6.762,2.038l14.16,0l0,4.395Z" style="fill-rule:nonzero;"/><path d="M32.471,324.573l3.882,-0.634c0.26,1.237 0.39,2.343 0.39,3.32c0,1.595 -0.252,2.832 -0.757,3.711c-0.504,0.879 -1.167,1.497 -1.989,1.855c-0.822,0.358 -2.552,0.537 -5.188,0.537l-14.917,0l-0,3.223l-3.418,0l-0,-3.223l-6.421,0l-2.637,-4.37l9.058,0l-0,-4.419l3.418,0l-0,4.419l15.161,0c1.253,0 2.059,-0.077 2.417,-0.232c0.358,-0.154 0.643,-0.407 0.854,-0.756c0.212,-0.35 0.318,-0.851 0.318,-1.502c-0,-0.488 -0.057,-1.131 -0.171,-1.929Z" style="fill-rule:nonzero;"/><path d="M24.902,307.435l-0.39,-4.468c1.79,-0.212 3.259,-0.704 4.406,-1.477c1.148,-0.773 2.076,-1.974 2.784,-3.601c0.708,-1.628 1.062,-3.459 1.062,-5.493c-0,-1.807 -0.269,-3.402 -0.806,-4.786c-0.537,-1.383 -1.274,-2.412 -2.209,-3.088c-0.936,-0.675 -1.958,-1.013 -3.064,-1.013c-1.123,-0 -2.104,0.325 -2.942,0.976c-0.839,0.652 -1.542,1.726 -2.112,3.223c-0.374,0.96 -0.956,3.084 -1.746,6.372c-0.789,3.288 -1.534,5.591 -2.234,6.909c-0.895,1.709 -2.006,2.983 -3.332,3.821c-1.327,0.838 -2.812,1.258 -4.456,1.258c-1.806,-0 -3.495,-0.513 -5.066,-1.539c-1.57,-1.025 -2.762,-2.522 -3.576,-4.492c-0.814,-1.969 -1.221,-4.158 -1.221,-6.567c0,-2.653 0.427,-4.993 1.282,-7.019c0.854,-2.027 2.112,-3.585 3.772,-4.675c1.66,-1.091 3.54,-1.677 5.639,-1.758l0.342,4.541c-2.262,0.244 -3.971,1.07 -5.127,2.478c-1.155,1.408 -1.733,3.487 -1.733,6.238c-0,2.864 0.525,4.952 1.575,6.262c1.049,1.31 2.315,1.965 3.796,1.965c1.286,0 2.344,-0.464 3.174,-1.392c0.83,-0.911 1.68,-3.291 2.551,-7.141c0.871,-3.849 1.632,-6.49 2.283,-7.922c0.96,-2.083 2.177,-3.621 3.65,-4.614c1.473,-0.993 3.169,-1.489 5.09,-1.489c1.904,-0 3.699,0.545 5.383,1.635c1.685,1.091 2.995,2.657 3.931,4.7c0.936,2.043 1.404,4.342 1.404,6.897c-0,3.239 -0.472,5.953 -1.416,8.142c-0.944,2.189 -2.364,3.906 -4.261,5.151c-1.896,1.246 -4.04,1.901 -6.433,1.966Z" style="fill-rule:nonzero;"/><path d="M5.664,273.011l-5.054,-0l0,-4.395l5.054,0l0,4.395Zm30.737,-0l-25.927,-0l-0,-4.395l25.927,0l0,4.395Z" style="fill-rule:nonzero;"/><path d="M36.401,264.246l-3.564,0l-18.945,-16.504c0.097,1.872 0.146,3.524 0.146,4.956l0,10.572l-3.564,-0l-0,-21.192l2.905,0l16.455,14.038l3.003,2.71c-0.147,-1.969 -0.22,-3.816 -0.22,-5.542l0,-11.987l3.784,0l0,22.949Z" style="fill-rule:nonzero;"/><path d="M28.052,219.178l0.561,-4.541c2.653,0.716 4.712,2.043 6.177,3.979c1.465,1.937 2.197,4.411 2.197,7.422c0,3.793 -1.168,6.8 -3.503,9.021c-2.336,2.222 -5.611,3.333 -9.827,3.333c-4.362,-0 -7.747,-1.123 -10.156,-3.369c-2.409,-2.246 -3.613,-5.16 -3.613,-8.741c-0,-3.466 1.18,-6.298 3.54,-8.496c2.36,-2.197 5.68,-3.296 9.961,-3.296c0.26,0 0.651,0.009 1.172,0.025l-0,19.336c2.848,-0.163 5.029,-0.969 6.543,-2.417c1.513,-1.449 2.27,-3.255 2.27,-5.42c0,-1.612 -0.423,-2.987 -1.27,-4.126c-0.846,-1.139 -2.197,-2.043 -4.052,-2.71Zm-7.105,14.429l0,-14.478c-2.181,0.195 -3.816,0.749 -4.907,1.66c-1.693,1.4 -2.539,3.215 -2.539,5.445c-0,2.018 0.675,3.715 2.026,5.09c1.351,1.375 3.158,2.136 5.42,2.283Z" style="fill-rule:nonzero;"/></svg>